<svg xmlns="http://www.w3.org/2000/svg" width="131.044" height="92.204" viewBox="0 0 131.044 92.204">
  <g id="Group_4" data-name="Group 4" transform="translate(-1312 -67.796)">
    <g id="Rectangle_3" data-name="Rectangle 3" transform="translate(1350 135)" fill="#707070" stroke="#707070" stroke-width="1">
      <rect width="77" height="9" rx="3" stroke="none"/>
      <rect x="0.5" y="0.5" width="76" height="8" rx="2.5" fill="none"/>
    </g>
    <g id="Rectangle_4" data-name="Rectangle 4" transform="matrix(0.848, 0.53, -0.53, 0.848, 1363.488, 117.221)" fill="#707070" stroke="#707070" stroke-width="1">
      <rect width="5.778" height="27.444" rx="2" stroke="none"/>
      <rect x="0.5" y="0.5" width="4.778" height="26.444" rx="1.5" fill="none"/>
    </g>
    <g id="Rectangle_5" data-name="Rectangle 5" transform="translate(1363 117)" fill="#707070" stroke="#707070" stroke-width="1">
      <rect width="59" height="7" rx="3" stroke="none"/>
      <rect x="0.5" y="0.5" width="58" height="6" rx="2.5" fill="none"/>
    </g>
    <g id="Rectangle_6" data-name="Rectangle 6" transform="translate(1436.789 81.75) rotate(30)" fill="#707070" stroke="#707070" stroke-width="1">
      <rect width="7.222" height="44.778" rx="3" stroke="none"/>
      <rect x="0.5" y="0.5" width="6.222" height="43.778" rx="2.5" fill="none"/>
    </g>
    <g id="Rectangle_7" data-name="Rectangle 7" transform="translate(1333.512 71.407) rotate(-30)" fill="#707070" stroke="#707070" stroke-width="1">
      <rect width="7.222" height="59.222" rx="3" stroke="none"/>
      <rect x="0.5" y="0.5" width="6.222" height="58.222" rx="2.5" fill="none"/>
    </g>
    <g id="Rectangle_9" data-name="Rectangle 9" transform="translate(1344 82)" fill="#707070" stroke="#707070" stroke-width="1">
      <rect width="98" height="10" rx="4" stroke="none"/>
      <rect x="0.5" y="0.5" width="97" height="9" rx="3.5" fill="none"/>
    </g>
    <g id="Rectangle_10" data-name="Rectangle 10" transform="translate(1312 68)" fill="#707070" stroke="#707070" stroke-width="1">
      <rect width="29" height="8" rx="3" stroke="none"/>
      <rect x="0.5" y="0.5" width="28" height="7" rx="2.5" fill="none"/>
    </g>
    <g id="Ellipse_1" data-name="Ellipse 1" transform="translate(1360 144)" fill="#fff" stroke="#707070" stroke-width="4">
      <circle cx="8" cy="8" r="8" stroke="none"/>
      <circle cx="8" cy="8" r="6" fill="none"/>
    </g>
    <g id="Ellipse_2" data-name="Ellipse 2" transform="translate(1406 144)" fill="#fff" stroke="#707070" stroke-width="4">
      <circle cx="8" cy="8" r="8" stroke="none"/>
      <circle cx="8" cy="8" r="6" fill="none"/>
    </g>
    <path id="Path_1" data-name="Path 1" d="M1365.571,68V92.968" transform="translate(8.365 24.111)" fill="none" stroke="#707070" stroke-width="2"/>
    <path id="Path_2" data-name="Path 2" d="M1365.571,68V92.968" transform="translate(27.143 24.111)" fill="none" stroke="#707070" stroke-width="2"/>
    <path id="Path_3" data-name="Path 3" d="M1365.571,68V92.968" transform="translate(45.921 24.111)" fill="none" stroke="#707070" stroke-width="2"/>
    <path id="Path_4" data-name="Path 4" d="M0,0V71.6" transform="translate(1428.722 98.817) rotate(90)" fill="none" stroke="#707070" stroke-width="2"/>
    <path id="Path_5" data-name="Path 5" d="M0,0V71.6" transform="translate(1428.722 108.929) rotate(90)" fill="none" stroke="#707070" stroke-width="2"/>
  </g>
</svg>
